<?xml version="1.0" encoding="utf-8"?>
<!-- Generated by IcoMoon.io -->
<!DOCTYPE svg PUBLIC "-//W3C//DTD SVG 1.1//EN" "http://www.w3.org/Graphics/SVG/1.1/DTD/svg11.dtd">
<svg version="1.1" xmlns="http://www.w3.org/2000/svg" xmlns:xlink="http://www.w3.org/1999/xlink" width="176" height="32" viewBox="0 0 176 32">
<g transform="translate(0 0)">
	<path d="M21.469 12.162c0.434-0.429 1.134-0.429 1.566 0 0.434 0.429 0.434 1.122 0 1.55l-6.251 6.128c-0.434 0.429-1.134 0.429-1.566 0l-6.253-6.128c-0.432-0.429-0.432-1.122 0-1.55 0.434-0.429 1.133-0.429 1.566 0l5.469 5.024 5.469-5.024z" />
</g>
<g transform="translate(48 0)">
	<path d="M4.131 8.962c-0.434-0.429-1.134-0.429-1.566 0-0.432 0.427-0.432 1.122 0 1.55l12.653 12.528c0.434 0.429 1.133 0.429 1.566 0l12.653-12.528c0.432-0.429 0.434-1.122 0-1.55s-1.136-0.429-1.566-0.002l-11.87 11.426-11.869-11.424z" />
</g>
<g transform="translate(96 0)">
	<path d="M10.53 19.838c-0.434 0.429-1.133 0.429-1.566 0-0.432-0.429-0.434-1.122 0-1.552l6.253-6.125c0.434-0.429 1.134-0.429 1.566 0l6.253 6.126c0.434 0.43 0.434 1.123 0 1.552s-1.133 0.429-1.566 0l-5.47-5.026-5.469 5.024z" />
</g>
<g transform="translate(144 0)">
	<path d="M27.869 23.038c0.434 0.429 1.134 0.429 1.566 0 0.434-0.429 0.434-1.122 0-1.55l-12.653-12.528c-0.432-0.429-1.133-0.429-1.565 0l-12.653 12.528c-0.432 0.429-0.434 1.122 0 1.55s1.133 0.429 1.566 0l11.869-11.426 11.869 11.426z" />
</g>
</svg>
